<svg xmlns="http://www.w3.org/2000/svg" style="display: none;">
  
    <symbol id="icon-vimeo" viewBox="0 0 512 512">
      <path d="m484 150c-11 63-40 123-87 179c-48 57-90 97-126 122c-14 9-28 12-41 8c-14-3-25-10-34-19c-9-9-17-20-22-31c-6-11-19-52-40-123c-21-70-34-109-38-114c-5-4-12-5-19-3c-8 3-15 6-23 11c0 0-10 7-10 7c0 0-19-25-19-25c6-7 14-16 24-27c9-11 27-26 51-45c25-20 46-31 64-35c10-2 19-1 27 4c8 4 14 10 18 18c5 7 9 18 12 31c3 12 6 24 8 35c1 11 3 24 6 39c2 14 4 26 6 34c5 18 9 32 11 41c3 9 5 18 9 28c3 9 6 16 9 20c3 3 6 5 9 5c14 0 35-28 65-85c14-26 15-47 3-63c-12-17-32-17-57-1c7-43 31-75 71-96c36-19 67-20 93-5c28 16 38 46 30 90"/>
    </symbol>
  
    <symbol id="icon-twitter" viewBox="0 0 512 512">
      <path d="m492 110c-13 18-29 35-49 50c0 0 0 12 0 12c0 44-10 87-30 128c-21 41-53 76-96 104c-43 28-92 42-148 42c-55 0-104-14-149-43c5 1 13 1 24 1c45 0 85-13 120-40c-21-1-40-8-56-20c-17-12-28-28-34-48c3 1 9 2 17 2c9 0 18-1 26-3c-23-5-41-16-56-34c-14-18-21-38-21-61c0 0 0-1 0-1c12 6 27 11 43 12c-29-20-43-47-43-81c0-16 4-32 13-48c53 64 119 98 200 100c-2-6-3-13-3-21c0-27 9-50 28-68c19-19 42-28 69-28c28 0 51 9 70 29c20-4 41-11 61-22c-7 22-21 40-42 53c19-3 38-8 56-15"/>
    </symbol>
  
    <symbol id="icon-layout" viewBox="0 0 512 512">
      <path d="m189 102c28 0 41 14 41 41c0 0 0 46 0 46c0 28-13 41-41 41c0 0-46 0-46 0c-27 0-41-13-41-41c0 0 0-46 0-46c0-27 14-41 41-41c0 0 46 0 46 0m180 0c27 0 41 14 41 41c0 0 0 46 0 46c0 28-14 41-41 41c0 0-46 0-46 0c-28 0-41-13-41-41c0 0 0-46 0-46c0-27 13-41 41-41c0 0 46 0 46 0m-180 180c28 0 41 13 41 41c0 0 0 46 0 46c0 27-13 41-41 41c0 0-46 0-46 0c-27 0-41-14-41-41c0 0 0-46 0-46c0-28 14-41 41-41c0 0 46 0 46 0m180 0c27 0 41 13 41 41c0 0 0 46 0 46c0 27-14 41-41 41c0 0-46 0-46 0c-28 0-41-14-41-41c0 0 0-46 0-46c0-28 13-41 41-41c0 0 46 0 46 0"/>
    </symbol>
  
    <symbol id="icon-github" viewBox="0 0 512 512">
      <path d="m338 289c9 0 16 4 23 13c6 9 10 20 10 33c0 13-4 24-10 33c-7 8-14 13-23 13c-10 0-18-5-24-13c-7-9-10-20-10-33c0-13 3-24 10-33c6-9 14-13 24-13m116-120c25 27 38 60 38 99c0 26-3 48-9 68c-6 21-13 37-22 50c-9 12-20 23-33 33c-13 9-25 16-36 21c-11 4-23 8-37 10c-14 2-25 4-32 4c-7 0-15 1-23 1c-2 0-8 0-18 0c-11 1-19 1-26 1c-7 0-15 0-26-1c-10 0-16 0-18 0c-8 0-16-1-23-1c-7 0-18-2-32-4c-14-2-26-6-37-10c-11-5-23-12-36-21c-13-10-24-21-33-33c-9-13-16-29-22-50c-6-20-9-42-9-68c0-39 13-72 38-99c-2-1-3-15 0-41c2-26 8-50 17-72c31 4 70 21 116 54c16-5 38-7 65-7c29 0 50 2 65 7c21-15 41-26 60-35c20-9 34-14 43-16c0 0 13-3 13-3c9 22 15 46 17 72c3 26 2 40 0 41m-197 263c57 0 100-7 129-20c29-14 43-42 43-84c0-25-9-45-28-62c-9-9-20-14-33-16c-12-2-32-2-58 0c-26 2-43 3-53 3c0 0-1 0-1 0c0 0-1 0-1 0c-11 0-25-1-43-2c-17-1-31-2-40-3c-10 0-21 1-33 4c-11 3-21 7-28 14c-18 16-27 36-27 62c0 42 14 70 43 84c29 13 71 20 128 20c0 0 2 0 2 0m-82-143c9 0 17 4 23 13c7 9 10 20 10 33c0 13-3 24-10 33c-6 8-14 13-23 13c-9 0-17-5-24-13c-6-9-10-20-10-33c0-13 4-24 10-33c7-9 15-13 24-13"/>
    </symbol>
  
    <symbol id="icon-linkedin" viewBox="0 0 512 512">
      <path d="m130 78c0 13-5 25-15 35c-10 9-22 14-38 14c-15 0-28-5-37-14c-10-10-14-22-14-35c0-15 4-26 14-36c9-9 22-13 38-13c16 0 28 4 37 13c9 10 14 21 15 36m-101 404c0 0 0-316 0-316c0 0 98 0 98 0c0 0 0 316 0 316c0 0-98 0-98 0m156-215c0-29 0-63-2-101c0 0 85 0 85 0c0 0 5 44 5 44c0 0 2 0 2 0c21-34 53-51 98-51c34 0 61 11 82 34c21 23 31 57 31 102c0 0 0 187 0 187c0 0-98 0-98 0c0 0 0-175 0-175c0-46-17-68-50-68c-24 0-41 12-50 36c-2 5-3 13-3 25c0 0 0 182 0 182c0 0-100 0-100 0c0 0 0-215 0-215"/>
    </symbol>
  
    <symbol id="icon-mail" viewBox="0 0 512 512">
      <path d="m41 135c-11-6-16-13-14-20c0-5 5-7 13-7c0 0 433 0 433 0c13 0 16 5 10 16c-2 5-6 8-12 11c-5 2-38 20-98 52c-61 33-92 50-93 51c-6 3-14 5-24 5c-10 0-17-2-24-5c-1-1-32-18-93-51c-60-32-93-50-98-52m435 51c7-3 10-1 10 5c0 0 0 189 0 189c0 5-2 11-8 16c-6 6-12 8-17 8c0 0-410 0-410 0c-5 0-11-2-17-8c-5-5-8-11-8-16c0 0 0-189 0-189c0-6 3-8 10-5c0 0 196 103 196 103c7 3 14 5 24 5c10 0 17-2 24-5c0 0 196-103 196-103"/>
    </symbol>
  
    <symbol id="icon-phone" viewBox="0 0 512 512">
      <path d="m287 287c56-56 76-91 61-106c0 0-4-4-4-4c-11-10-18-18-21-24c-4-7-5-16-2-28c2-12 10-27 25-45c6-8 13-15 19-20c5-5 11-8 17-8c7-1 12-1 16-1c4 0 9 2 15 7c6 4 10 7 12 9c2 2 7 6 13 13c7 7 10 10 11 11c16 17 15 50-3 99c-18 50-53 100-104 151c-52 51-102 86-152 105c-49 19-82 20-98 4c-1-1-5-5-12-12c-7-7-12-11-13-13c-1-1-4-5-9-12c-5-6-7-12-7-16c1-4 1-9 1-15c1-6 3-12 8-18c5-6 11-12 19-19c15-12 27-20 36-24c10-4 19-5 28-1c9 4 15 7 18 9c3 3 10 9 20 19c15 15 50-5 106-61"/>
    </symbol>
  
    <symbol id="icon-pinterest" viewBox="0 0 512 512">
      <path d="m222 338c-9 44-19 80-29 108c-11 28-28 50-50 66c-2-25-3-46-3-61c-1-16 1-35 5-57c5-22 8-39 12-53c3-14 8-31 13-51c5-20 10-37 12-50c-8-18-11-38-9-60c1-22 9-40 24-54c15-14 32-18 51-10c13 5 21 15 22 30c2 15-1 31-6 49c-6 17-12 35-17 52c-5 18-6 33-2 46c4 14 15 22 33 25c23 5 43-1 61-19c19-18 31-40 38-67c8-27 9-55 6-84c-3-28-13-50-28-65c-21-22-47-34-77-36c-30-2-58 4-83 17c-26 13-46 33-62 60c-16 27-21 56-16 87c1 7 5 16 11 27c6 10 10 18 11 24c1 5-2 17-9 34c-50-12-74-51-72-118c2-47 20-87 54-120c35-32 74-52 119-57c56-6 106 4 149 29c43 26 67 63 74 112c9 60-3 115-34 163c-32 48-75 70-129 66c-8-1-15-3-22-5c-7-2-12-5-15-7c-3-2-9-5-16-10c-7-5-12-9-16-11"/>
    </symbol>
  
    <symbol id="icon-menu" viewBox="0 0 512 512">
      <path d="m410 230c7 0 13 3 18 8c5 5 7 11 7 18c0 7-2 13-7 18c-6 5-12 8-18 8c0 0-308 0-308 0c-6 0-12-3-18-8c-5-5-7-11-7-18c0-7 2-13 7-18c5-5 11-8 18-8c0 0 308 0 308 0m-308-51c-6 0-12-2-18-7c-5-6-7-12-7-18c0-7 2-13 7-18c5-5 11-8 18-8c0 0 308 0 308 0c7 0 13 3 18 8c5 5 7 11 7 18c0 6-2 12-7 18c-6 5-12 7-18 7c0 0-308 0-308 0m308 154c7 0 13 2 18 7c5 6 7 12 7 18c0 7-2 13-7 18c-6 5-12 8-18 8c0 0-308 0-308 0c-6 0-12-3-18-8c-5-5-7-11-7-18c0-6 2-12 7-18c5-5 11-7 18-7c0 0 308 0 308 0"/>
    </symbol>
  
    <symbol id="icon-quote" viewBox="0 0 512 512">
      <path d="m136 87c50 0 81 25 94 75c13 48 6 99-21 154c-27 58-65 93-114 105c-11 3-22 4-34 4c0 0 0-36 0-36c38 0 69-18 93-55c19-30 23-54 13-75c-5-12-16-18-31-18c-21 0-38-8-53-23c-15-15-22-33-22-54c0-21 7-39 22-54c15-15 32-23 53-23m215 0c50 0 81 25 94 75c13 48 6 99-21 154c-27 58-65 93-114 105c-11 3-22 4-34 4c0 0 0-36 0-36c38 0 69-18 93-55c19-30 23-54 13-75c-5-12-16-18-31-18c-21 0-38-8-53-23c-15-15-22-33-22-54c0-21 7-39 22-54c15-15 32-23 53-23"/>
    </symbol>
  
    <symbol id="icon-list" viewBox="0 0 512 512">
      <path d="m128 333c7 0 13 2 18 7c5 6 8 12 8 18c0 7-3 13-8 18c-5 5-11 8-18 8c0 0-26 0-26 0c-6 0-12-3-18-8c-5-5-7-11-7-18c0-6 2-12 7-18c5-5 11-7 18-7c0 0 26 0 26 0m0-103c7 0 13 3 18 8c5 5 8 11 8 18c0 7-3 13-8 18c-5 5-11 8-18 8c0 0-26 0-26 0c-6 0-12-3-18-8c-5-5-7-11-7-18c0-7 2-13 7-18c5-5 11-8 18-8c0 0 26 0 26 0m0-102c7 0 13 3 18 8c5 5 8 11 8 18c0 6-3 12-8 18c-5 5-11 7-18 7c0 0-26 0-26 0c-6 0-12-2-18-7c-5-6-7-12-7-18c0-7 2-13 7-18c5-5 11-8 18-8c0 0 26 0 26 0m102 51c-6 0-12-2-18-7c-5-6-7-12-7-18c0-7 2-13 7-18c6-5 12-8 18-8c0 0 180 0 180 0c7 0 13 3 18 8c5 5 7 11 7 18c0 6-2 12-7 18c-6 5-12 7-18 7c0 0-180 0-180 0m180 51c7 0 13 3 18 8c5 5 7 11 7 18c0 7-2 13-7 18c-6 5-12 8-18 8c0 0-180 0-180 0c-6 0-12-3-18-8c-5-5-7-11-7-18c0-7 2-13 7-18c6-5 12-8 18-8c0 0 180 0 180 0m0 103c7 0 13 2 18 7c5 6 7 12 7 18c0 7-2 13-7 18c-6 5-12 8-18 8c0 0-180 0-180 0c-6 0-12-3-18-8c-5-5-7-11-7-18c0-6 2-12 7-18c6-5 12-7 18-7c0 0 180 0 180 0"/>
    </symbol>
  
    <symbol id="icon-globe" viewBox="0 0 512 512">
      <path d="m256 10c68 0 126 24 174 72c48 49 72 106 72 174c0 68-24 126-72 174c-48 48-106 72-174 72c-68 0-125-24-174-72c-48-48-72-106-72-174c0-68 24-125 72-174c49-48 106-72 174-72m210 246c0-45-13-86-40-122c-27-37-61-62-103-77c-7 9-9 14-9 17c2 13 5 21 10 26c4 4 9 5 15 3c0 0 16-6 16-6c0 0 4 0 11-1c7 8 7 16 0 24c-8 8-16 18-23 29c-8 11-8 24-1 39c12 22 28 33 49 33c10 1 17 7 22 19c5 11 8 22 9 33c3 28 1 52-7 72c-8 15-5 28 7 39c29-38 44-81 44-128m-239-207c-38 5-72 19-102 43c-29 24-51 54-65 89c2 0 6 1 12 1c5 1 10 1 14 2c4 0 9 1 13 2c5 1 9 2 13 4c3 2 5 4 6 7c1 4-1 11-7 23c-7 11-10 21-10 31c0 10 7 20 20 29c13 8 19 16 19 23c0 10 2 21 4 35c3 14 4 21 4 22c0 5 7 14 19 28c12 14 21 22 27 22c3 0 5-4 5-12c1-7 0-16-1-27c-1-11-1-18-1-21c0-11 2-23 7-38c4-14 14-26 30-36c16-9 25-17 28-23c6-12 7-22 5-31c-3-10-6-17-9-22c-3-6-9-11-17-15c-9-4-16-7-21-8c-6-2-12-4-19-5c-7-1-11-2-12-2c-5-2-12-3-21-4c-9 0-15 1-18 2c-4 1-9-1-14-6c-6-5-9-10-9-15c0-3 3-8 8-13c5-6 11-12 18-19c6-7 11-12 14-16c3-4 6-8 9-10c3-3 6-6 11-9c4-3 9-6 14-10c1-2 5-5 13-9c7-5 11-8 13-12m-37 407c23 7 45 10 66 10c44 0 82-12 116-35c-9-15-29-21-61-17c-8 0-19 3-33 8c-14 6-22 8-24 9c-25 6-38 8-39 8c-4 1-8 3-13 7c-5 5-9 8-12 10"/>
    </symbol>
  
    <symbol id="icon-vcard" viewBox="0 0 512 512">
      <path d="m461 51c14 0 26 5 36 15c10 10 15 22 15 36c0 0 0 308 0 308c0 13-5 25-15 35c-10 11-22 16-36 16c0 0-410 0-410 0c-13 0-25-5-36-16c-10-10-15-22-15-35c0 0 0-308 0-308c0-14 5-26 15-36c11-10 23-15 36-15c0 0 410 0 410 0m0 359c0 0 0-308 0-308c0 0-410 0-410 0c0 0 0 308 0 308c0 0 410 0 410 0m-231-101c0 0 0 46 0 46c0 0-128 0-128 0c0 0 0-46 0-46c0 0 128 0 128 0m0-77c0 0 0 47 0 47c0 0-128 0-128 0c0 0 0-47 0-47c0 0 128 0 128 0m0-76c0 0 0 46 0 46c0 0-128 0-128 0c0 0 0-46 0-46c0 0 128 0 128 0m178 163c0 0 2 36 2 36c0 0-128 0-128 0c0-24 1-36 3-36c28-7 43-18 43-33c0-6-5-15-14-29c-9-14-14-29-14-45c0-38 15-56 46-56c31 0 46 18 46 56c0 16-5 31-14 45c-10 14-14 23-14 29c0 7 3 13 10 18c7 6 15 9 22 11c0 0 12 4 12 4"/>
    </symbol>
  
    <symbol id="icon-codepen" viewBox="0 0 512 512">
      <path d="m512 175c0 0 0 0 0-1 0 0-1-1-1-2 0 0 0 0 0-1 0 0 0-1-1-1 0-1 0-1 0-1 0-1-1-1-1-2 0 0 0-1 0-1-1 0-1-1-1-1-1-1-1-1-1-1 0-1-1-1-1-1-1-1-1-1-1-1-1-1-1-1-1-1-1-1-1-1-1-1 0 0-1 0-1 0l-234-156c-7-5-17-5-24 0l-234 156c0 0 0 0-1 0 0 0 0 0-1 1 0 0 0 0-1 1 0 0 0 0-1 1 0 0 0 0-1 1 0 0 0 0-1 1 0 0 0 1 0 1-1 0-1 1-1 1 0 1-1 1-1 2 0 0 0 0 0 1-1 0-1 1-1 1 0 1 0 1 0 1 0 1-1 2-1 2 0 1 0 1 0 1 0 1 0 2 0 3l0 156c0 1 0 2 0 3 0 0 0 1 0 1 0 1 1 1 1 2 0 0 0 0 0 1 0 0 0 1 1 1 0 1 0 1 0 1 0 1 1 1 1 2 0 0 0 1 1 1 0 0 0 1 0 1 1 1 1 1 1 1 1 1 1 1 1 1 1 1 1 1 1 1 1 1 1 1 1 1 1 1 1 1 1 1 1 0 1 0 1 0l234 156c4 3 8 4 12 4 4 0 9-1 12-4l234-156c0 0 1 0 1 0 0 0 0 0 1-1 0 0 0 0 1-1 0 0 0 0 1-1 0 0 1 0 1-1 0 0 0 0 1-1 0 0 0-1 1-1 0 0 0-1 0-1 0-1 1-1 1-2 0 0 0 0 0-1 1 0 1-1 1-1 0-1 0-1 0-1 0-1 1-2 1-2 0 0 0-1 0-1 0-1 0-2 0-3l0-156c0-1 0-2 0-3z m-234-112l172 115-77 52-95-64z m-44 0l0 103-95 64-77-52z m-190 156l55 37-55 37z m190 230l-172-115 77-51 95 63z m22-141l-78-52 78-52 78 52z m22 141l0-103 95-63 77 51z m190-156l-55-37 55-37z"/>
    </symbol>
  
</svg>
