<?xml version="1.0" encoding="utf-8"?>
<!DOCTYPE svg PUBLIC "-//W3C//DTD SVG 1.1//EN" "http://www.w3.org/Graphics/SVG/1.1/DTD/svg11.dtd">
<svg version="1.1" id="Layer_1" xmlns="http://www.w3.org/2000/svg" xmlns:xlink="http://www.w3.org/1999/xlink" x="0px" y="0px"
	 viewBox="0 0 283.46 283.46"
	 xml:space="preserve">

<path id="Proper" style="fill:#ffffff;" d="M54.51,21.803H-0.002v87.22H10.9V87.218h43.61c0,0,32.708,0,32.708-32.708
	S54.51,21.803,54.51,21.803z M54.51,76.315H10.9v-43.61h43.61c0,0,21.805,0,21.805,21.805C76.315,76.315,54.51,76.315,54.51,76.315z
	 M185.34,54.51c0-32.708-32.708-32.708-32.708-32.708H98.12v87.22h10.902V87.218h43.609c0,0,21.805,0,21.805,21.805h10.903
	c0,0-0.008-18.206-13.596-27.45C178.904,77.079,185.34,69.016,185.34,54.51z M152.632,76.315h-43.609v-43.61h43.609
	c0,0,21.805,0,21.805,21.805C174.437,76.315,152.632,76.315,152.632,76.315z M54.51,119.925H-0.002v87.22H10.9V185.34h43.61
	c0,0,32.708,0,32.708-32.707C87.218,119.925,54.51,119.925,54.51,119.925z M54.51,174.438H10.9v-43.61h43.61
	c0,0,21.805,0,21.805,21.805C76.315,174.438,54.51,174.438,54.51,174.438z M283.463,152.633c0-32.708-32.709-32.708-32.709-32.708
	h-54.512v87.22h10.902V185.34h43.609c0,0,21.807,0,21.807,21.805h10.902c0,0-0.008-18.205-13.596-27.449
	C277.027,175.201,283.463,167.139,283.463,152.633z M250.754,174.438h-43.609v-43.61h43.609c0,0,21.807,0,21.807,21.805
	C272.561,174.438,250.754,174.438,250.754,174.438z M98.12,119.925h87.22v10.903h-76.317v32.708h43.609v10.902h-43.609v21.805
	h76.317v10.902H98.12V119.925z M250.754,21.803h-21.805c-32.556,0-32.707,32.708-32.707,32.708v21.805
	c0,32.859,32.707,32.708,32.707,32.708h21.805c32.859,0,32.709-32.708,32.709-32.708V54.51
	C283.463,21.954,250.754,21.803,250.754,21.803z M272.561,76.315c0,0,0,21.957-21.807,21.805h-21.805c0,0-21.654,0-21.805-21.805
	V54.51c0,0,0-21.654,21.805-21.805h21.805c0,0,21.807,0,21.807,21.805V76.315z"/>

<g id="Design">
	<path class="design-d" style="fill:#BE1E2D;" d="M21.803,218.047H-0.002v43.611h21.805c12.043,0,21.805-9.764,21.805-21.807
		S33.846,218.047,21.803,218.047z"/>
	<rect class="design-e" x="54.51" y="218.047" style="fill:#F05A28;" width="43.61" height="43.611"/>
	<path class="design-s" style="fill:#F9EC31;" d="M109.022,239.852v21.654h19.321c0.816,0.092,1.643,0.152,2.484,0.152
		c12.043,0,21.804-9.764,21.804-21.807v-21.805h-21.804C118.785,218.047,109.022,227.809,109.022,239.852z"/>
	<rect class="design-i" x="163.534" y="218.047" style="fill:#8BC53F;" width="10.902" height="43.611"/>
	<path class="design-g" style="fill:#1B75BB;" d="M207.145,218.047c-12.043,0-21.805,9.762-21.805,21.805s9.762,21.807,21.805,21.807h21.805v-21.807
		C228.949,227.809,219.188,218.047,207.145,218.047z"/>
	<rect class="design-n" x="239.852" y="218.047" style="fill:#652D90;" width="43.611" height="43.611"/>
</g>

<path style="fill:#ffffff;" d="M-0.002,272.561h283.465v10.902H-0.002V272.561z M-0.002,10.9h283.465V-0.002H-0.002V10.9z"/>
</svg>
